<?xml version="1.0" encoding="UTF-8"?>
<svg width="47px" height="25px" viewBox="0 0 47 25" version="1.1" xmlns="http://www.w3.org/2000/svg" xmlns:xlink="http://www.w3.org/1999/xlink">
    <!-- Generator: Sketch 59.1 (86144) - https://sketch.com -->
    <title>poly_old</title>
    <desc>Created with Sketch.</desc>
    <g id="Page-1" stroke="none" stroke-width="1" fill="none" fill-rule="evenodd">
        <g id="poly_old" fill="#00213C" fill-rule="nonzero">
            <path d="M46.6666667,6.37689647 L39.0933363,23.7686858 L35.6307665,23.7686858 L38.252215,17.9514354 L33.1550568,6.37689647 L36.6893394,6.37689647 L40.0325421,13.9651197 L43.2050222,6.37689647 L46.6666667,6.37689647 Z M20.5326853,15.4832292 C18.6089326,15.4832292 17.3828757,14.1547672 17.3583546,12.2945486 C17.3828757,10.4589656 18.5848742,9.10633278 20.5326853,9.10633278 C22.4559753,9.10633278 23.6820322,10.4589656 23.7060907,12.2945486 C23.6820322,14.1305965 22.4559753,15.4832292 20.5326853,15.4832292 L20.5326853,15.4832292 Z M20.5326853,5.89348133 C16.8299933,5.89348133 14.0891779,8.79211292 14.0891779,12.2945486 C14.0891779,15.797449 16.8299933,18.6956158 20.5326853,18.6956158 C24.2353771,18.6956158 26.97573,15.797449 26.97573,12.2945486 C26.97573,8.79211292 24.2353771,5.89348133 20.5326853,5.89348133 L20.5326853,5.89348133 Z M28.610781,1.88392458 L31.8563618,0 L31.8563618,2.24741558 L31.8563618,6.37689647 L31.8563618,11.8143872 L31.8563618,15.4832292 L31.8563618,18.2126654 L28.610781,18.2126654 L28.610781,13.9404842 L28.610781,9.68829014 L28.610781,4.9359475 L28.610781,1.88392458 Z M6.44367208,15.4832292 C4.51991931,15.4832292 3.29386236,14.1547672 3.26980389,12.2945486 C3.29386236,10.4589656 4.49632347,9.10633278 6.44367208,9.10633278 C8.36696208,9.10633278 9.59301903,10.4589656 9.6170775,12.2945486 C9.59301903,14.1305965 8.36696208,15.4832292 6.44367208,15.4832292 L6.44367208,15.4832292 Z M6.44367208,5.89348133 C2.69286319,5.89348133 -0.0243565278,8.79211292 0.000164583333,12.4879146 L0.000164583333,25 L3.22168694,23.1160754 L3.22168694,17.6404693 C4.0748375,18.3925517 5.42026153,18.6956158 6.49132639,18.6956158 C10.1459012,18.6956158 12.8867168,15.797449 12.8867168,12.2945486 C12.8867168,8.79211292 10.1459012,5.89348133 6.44367208,5.89348133 L6.44367208,5.89348133 Z" id="Fill-1"></path>
        </g>
    </g>
</svg>