<?xml version="1.0" encoding="UTF-8"?>
<svg width="42px" height="42px" viewBox="0 0 42 42" version="1.1" xmlns="http://www.w3.org/2000/svg" xmlns:xlink="http://www.w3.org/1999/xlink">
    <!-- Generator: Sketch 59.1 (86144) - https://sketch.com -->
    <title>Artboard</title>
    <desc>Created with Sketch.</desc>
    <g id="Artboard" stroke="none" stroke-width="1" fill="none" fill-rule="evenodd">
        <g id="Group" transform="translate(1.000000, 1.000000)" fill="#FF3900" fill-rule="nonzero">
            <g id="poly_propeller_orange" transform="translate(10.000000, 3.000000)">
                <path d="M9.80972478,22.8106995 C6.61196671,22.8106995 4.01967352,20.212985 4.01967352,17.0085395 C4.01967352,13.8045209 6.61196671,11.2068064 9.80972478,11.2068064 C13.0070567,11.2068064 15.5993499,13.8045209 15.5993499,17.0085395 C15.5993499,20.212985 13.0070567,22.8106995 9.80972478,22.8106995 L9.80972478,22.8106995 Z M25.5113348,14.7771694 L19.3902165,18.318498 L19.4179119,18.1519779 L19.4358074,18.0042446 L19.4558334,17.759161 L19.4566856,17.7408012 L19.4579637,17.7241491 L19.4694681,17.4248398 L19.4715984,17.0964964 L19.4673376,16.8590984 L19.4524248,16.5179455 L19.4298423,16.2058269 L19.3961817,15.8680899 L19.3731732,15.6827829 L19.3250257,15.3540123 L19.2675044,15.0312194 L19.2014614,14.715258 L19.1260446,14.4052744 L19.0740624,14.2139897 L18.9845849,13.9146804 L18.8865856,13.6217757 L18.7983863,13.3826699 L18.6837698,13.1000126 L18.5606316,12.8233329 L18.4298239,12.5543388 L18.2887902,12.2874796 L18.1383827,12.0248902 L18.125174,12.0026874 L17.9636883,11.7443677 L17.7924026,11.4898907 L17.6117433,11.2401105 L17.4191534,10.9924651 L17.2159114,10.7478087 L17.1924768,10.7209091 L16.9764525,10.4792415 L16.7493499,10.2414166 L16.5086125,10.0040187 L16.2538144,9.76875546 L16.2337885,9.7508225 L15.9645037,9.51726736 L15.6777493,9.28200426 L15.3901428,9.05869647 L15.0680235,8.8212985 L14.7194871,8.57792289 L14.4582977,8.40243627 L14.0594834,8.14539746 L13.6091131,7.86700993 L13.4591316,7.77691824 L12.9069271,7.45070953 L12.7697282,7.37086526 L12.4220438,7.16933317 L0.0302519473,0 L0.0302519473,4.49817908 L6.15094409,8.03950772 L5.99371927,8.09843025 L5.85694634,8.15692579 L5.63580894,8.26196158 L5.61876561,8.27050108 L5.60300048,8.27861359 L5.33882866,8.41780736 L5.05463084,8.57963079 L4.85096278,8.70259952 L4.56378243,8.88577169 L4.30514953,9.06168529 L4.03075164,9.25937461 L3.8803442,9.37337687 L3.62085914,9.5791787 L3.37074811,9.78967722 L3.13086291,10.0052995 L2.90120389,10.2251916 L2.7610223,10.3665201 L2.54755438,10.5936707 L2.34388637,10.8250911 L2.18112239,11.0219264 L1.99407166,11.2618863 L1.81682084,11.5065428 L1.64936996,11.7554691 L1.48958857,12.0112269 L1.33790279,12.2725355 L1.32469419,12.296446 L1.18238223,12.5650132 L1.04859195,12.8404119 L0.923323352,13.1222153 L0.805298168,13.4121311 L0.695794662,13.7110135 L0.683864318,13.7460254 L0.583308563,14.0534471 L0.491274487,14.3694085 L0.407336003,14.6964712 L0.330640938,15.0342082 L0.324675766,15.0623886 L0.257780638,15.4120809 L0.197702829,15.7779982 L0.148703205,16.1404998 L0.104816593,16.5384403 L0.0685994737,16.9615723 L0.0477213775,17.2775335 L0.0247128489,17.7510486 L0.00979992482,18.2804972 L0.00639125864,18.4572648 L0.000852172932,19.0985809 L0.000426086466,19.2586965 L0,19.6609067 L0,34 L3.88758761,31.7506971 L3.88758761,24.6684666 L4.01839532,24.7764913 L4.13642045,24.864875 L4.33923632,25.0057768 L4.35329698,25.0147432 L4.36394909,25.0220018 L4.61789495,25.1829712 L4.90251893,25.3499184 L5.10831734,25.4634937 L5.41254104,25.6223283 L5.6911998,25.7576792 L6.00181485,25.8985809 L6.16457886,25.9677509 L6.47561993,26.0915736 L6.78495666,26.2038679 L7.09386737,26.3054879 L7.40149975,26.3955795 L7.58812434,26.4455356 L7.89405251,26.5181214 L8.1982762,26.5796057 L8.44455264,26.6218761 L8.74835032,26.6641467 L9.05129581,26.6961697 L9.34444138,26.7166645 L9.64823905,26.7277659 L9.95203674,26.7286199 L9.97163657,26.7281929 L10.2775646,26.7175185 L10.584771,26.6961697 L10.8941077,26.6637197 L11.2060009,26.6205952 L11.5221551,26.5655155 L11.5498505,26.5603919 L11.8689872,26.4933568 L12.1906805,26.4143665 L12.5179127,26.3229939 L12.8515361,26.2188121 L12.8698578,26.2128344 L13.2090205,26.0954164 L13.5575569,25.9630542 L13.8894761,25.8268492 L14.2584646,25.6645988 L14.6462007,25.4827075 L14.922729,25.3460756 L15.3471084,25.1270375 L15.8170786,24.8729876 L15.9627993,24.7918623 L16.5252297,24.4733392 L16.658594,24.3964838 L17.0067044,24.1958057 L29.3984962,17.0260454 L25.5113348,14.7771694 Z" id="Fill-3-Copy"></path>
            </g>
        </g>
    </g>
</svg>